<svg xmlns="http://www.w3.org/2000/svg" viewBox="0 0 118 114.2"><path d="M27.2,75.2h-3V70.6h3Zm5.5.6H28.3v3h4.4Zm-5.5,4.3h-3v4.3h3Zm-3.9-4.3H18.6v3h4.7Zm88.8,21.4H4.9V57H55V33.1h3V57h54.1Zm-3-37.2H7.9V94.2H109.1ZM50.7,24.1a5.8,5.8,0,0,1,11.6,0,5.8,5.8,0,0,1-11.6,0Zm5.8,2.7a2.8,2.8,0,1,0,0-5.5A2.8,2.8,0,1,0,56.5,26.8ZM98.1,82.3H86.9V71.1H98.1Zm-3-8.2H89.9v5.2h5.2ZM66.8,76.2h-4v3h4Zm-8,0h-4v3h4Zm-8,0h-4v3h4Zm67.2,35v3H0v-3H23v-5.5H10.2V99.1h3v3.6h89.5V98.4h3v7.3H91.9v5.5Zm-92,0H88.9v-5.5H26ZM46.6,32.9a13.7,13.7,0,0,1,.2-16.3l-2.4-1.8a16.7,16.7,0,0,0-.3,19.8Zm-8.2,7.3a26.5,26.5,0,0,1-.1-30.4L35.9,8.1A29.1,29.1,0,0,0,36,41.9Zm-8.2,7.1a35.6,35.6,0,0,1,0-45.4L27.9,0a38.5,38.5,0,0,0,0,49.2ZM66.3,32.9l2.4,1.7a16.7,16.7,0,0,0-.3-19.8L66,16.6A13.8,13.8,0,0,1,66.3,32.9Zm10.5,9a29,29,0,0,0,.1-33.8L74.5,9.8a26.3,26.3,0,0,1-.1,30.4Zm5.8,5.4L85,49.2A38.5,38.5,0,0,0,84.9,0L82.6,1.9A35.5,35.5,0,0,1,82.6,47.3Z" fill="#636b6f"/></svg>