<svg xmlns="http://www.w3.org/2000/svg" viewBox="0 0 104.2 102.7"><path d="M52,90a39.4,39.4,0,0,1-8.6-77.9L44,15A36.5,36.5,0,1,0,88.5,50.6,36.7,36.7,0,0,0,59.7,14.9l.6-2.9A39.4,39.4,0,0,1,52,90ZM3.1,54l-3,.2c.1,1.4.3,2.8.5,4.1l2.9-.4C3.3,56.6,3.2,55.3,3.1,54ZM15.2,18.2l-2.3-2a39.2,39.2,0,0,0-2.5,3.2l2.4,1.8A31.5,31.5,0,0,1,15.2,18.2ZM27.1,8.3,25.6,5.7,22.1,8l1.7,2.4ZM3.2,46.3.2,46C.1,47.3,0,48.7,0,50.1H3C3,48.9,3.1,47.5,3.2,46.3ZM34.1,4.9,33,2.1,29.2,3.8l1.3,2.7ZM4.5,38.6l-2.9-.7c-.4,1.3-.6,2.7-.9,4l3,.5C3.9,41.1,4.2,39.9,4.5,38.6Zm6.1-14.2L8,22.8c-.7,1.2-1.4,2.4-2,3.6l2.6,1.4A37.9,37.9,0,0,1,10.6,24.4ZM6.9,31.3,4.2,30.1,2.7,33.9l2.9,1C6,33.7,6.4,32.5,6.9,31.3ZM20.8,12.8l-2-2.3-3,2.7,2.1,2.2ZM99.7,38.6l2.9-.8a29.1,29.1,0,0,0-1.2-3.9l-2.8.9C99,36.1,99.4,37.3,99.7,38.6Zm-2.5-7.4L100,30l-1.8-3.7-2.7,1.4C96.1,28.9,96.7,30,97.2,31.2Zm-6-15c-.9-1.1-1.9-2.1-2.8-3l-2.1,2.1,2.6,2.8Zm9.8,30,3-.3c-.1-1.3-.3-2.7-.5-4.1l-3,.5C100.7,43.6,100.9,44.9,101,46.2ZM71.2,2.1,67.3.7l-.9,2.9,3.7,1.3Zm-30.9.8L39.6,0,36.8.8l.9,2.8Zm45,7.5L82,7.9l-1.7,2.5a32.4,32.4,0,0,1,3.1,2.4ZM78.6,5.7,74.9,3.8,73.6,6.5A22.1,22.1,0,0,1,77,8.3Zm17.5,17-2.3-3.3-2.4,1.8a36.2,36.2,0,0,1,2.2,3.2ZM84.2,87.8,86.1,90a26.8,26.8,0,0,0,3-2.8L87,85.1Zm5.4-5.5,2.3,1.9,2.5-3.3L92,79.2ZM77.9,92.4l1.6,2.5a40.5,40.5,0,0,0,3.4-2.3l-1.8-2.4ZM63.7,98.3l.7,2.9,3.9-1.1-.9-2.8ZM71,95.9l1.2,2.8c1.2-.6,2.5-1.1,3.7-1.8l-1.4-2.6ZM104.2,50h-3c0,1.4,0,2.4-.1,3.9l3,.2C104.2,52.5,104.2,51.5,104.2,50ZM94.1,76l2.6,1.5c.7-1.2,1.4-2.4,2-3.6L96,72.6Zm5.8-14.4,3,.7c.3-1.3.5-2.7.7-4.1l-2.9-.4C100.5,59.1,100.2,60.4,99.9,61.6Zm-95.6.1-3,.7c.3,1.3.7,2.6,1.1,3.9l2.9-.9A25.4,25.4,0,0,1,4.3,61.7ZM97.6,69l2.8,1.1c.5-1.2,1-2.5,1.4-3.8l-2.9-.9C98.5,66.6,98.1,67.8,97.6,69ZM18.1,90.1a39.2,39.2,0,0,0,3.2,2.5l1.8-2.4-3-2.4Zm-5.8-5.9a41.2,41.2,0,0,0,2.8,3.1l2.1-2.2a34.5,34.5,0,0,1-2.6-2.8ZM32.1,98.7l3.8,1.4,1-2.8-3.7-1.4Zm-7.4-3.8L28.3,97l1.4-2.7-3.4-1.9ZM6.6,69.1,3.8,70.2c.5,1.3,1.1,2.5,1.7,3.7l2.7-1.3C7.6,71.4,7.1,70.3,6.6,69.1Zm.9,8.4C8.2,78.7,9,79.9,9.8,81l2.4-1.8A35.3,35.3,0,0,1,10.1,76ZM56,99.5l.2,3a27,27,0,0,0,4.1-.5l-.4-2.9Zm-7.8,0-.2,3,4.1.2v-3Zm-8.3,1.7a28.3,28.3,0,0,0,4,.8l.5-2.9-3.8-.8ZM51.1,40.3V5.2h3v35a8.8,8.8,0,0,1-1.2,17.4C42.4,57.6,40.8,42.4,51.1,40.3ZM48.8,52.9a5.7,5.7,0,1,0,0-8.1A5.8,5.8,0,0,0,48.8,52.9ZM24.7,50.7h-3A30.4,30.4,0,0,0,50.6,81.1l.2-3A27.3,27.3,0,0,1,24.7,50.7Zm32,30a28.7,28.7,0,0,0,5.6-1.4l-1.1-2.8a28.3,28.3,0,0,1-5,1.3Z" fill="#636b6f"/></svg>