<svg xmlns="http://www.w3.org/2000/svg" viewBox="0 0 119 100"><path d="M40.2,18.1l-1.6-2.6A40.4,40.4,0,0,1,97.5,36.8l-2.9,1A37.2,37.2,0,0,0,40.2,18.1ZM24.4,62.9l-2.8,1a40.2,40.2,0,0,0,57.9,21L78,82.3A37.3,37.3,0,0,1,24.4,62.9Zm84.1-3.4A50.1,50.1,0,0,1,95.2,84.8h8v3H84.1V68.7h3V75a36.5,36.5,0,0,0,8.3-15.5H61v2H58v-2H13.3c6.5,31.8,42.2,47,69.5,31.3l1.5,2.6c-29.2,16.8-67.4.4-74-33.9H0v-19H10.3a49,49,0,0,1,11.1-23h-7v-3h19V33.6h-3V26.5a39.5,39.5,0,0,0-7.1,14H58v-3h3v3h44.4C98.8,8.3,62.3-6.8,34.9,9.9L33.4,7.3c29.3-17.9,68.4-1.4,75.1,33.2H119v19ZM25.1,17.9A46.6,46.6,0,0,0,13.3,40.5h6.9A40.8,40.8,0,0,1,30.4,22V17.5H24.8ZM58,56.5v-13H3v13Zm3,0h55v-13H61Zm44.4,3H98.5A39.9,39.9,0,0,1,87.3,79.1l-.2-.3v6h4A47.5,47.5,0,0,0,105.4,59.5ZM45.8,48.7v3h4v-3Zm-24,3h4v-3h-4Zm-8,0h4v-3h-4Zm24,0h4v-3h-4Zm-8,0h4v-3h-4Z" fill="#636b6f"/></svg>