<svg xmlns="http://www.w3.org/2000/svg" viewBox="0 0 108.1 107"><path d="M3,46.3H0v-4H3Zm0-20H0v4H3Zm0,8H0v4H3ZM105.1,104H3V98.8H89.5v-3H3V50.3H0V107H108.1V24.6h-3ZM16.2,10.1a1.9,1.9,0,0,0-3.7,0A1.9,1.9,0,0,0,16.2,10.1Zm10,0a1.9,1.9,0,0,0-3.7,0A1.9,1.9,0,0,0,26.2,10.1Zm10,0a1.9,1.9,0,0,0-3.7,0A1.9,1.9,0,0,0,36.2,10.1ZM98.5,8H92.1v3h6.4ZM33.7,38.3,15.5,56.5,33.1,74.2l2.2-2.1L19.7,56.5,35.8,40.4Zm40.7,2.1,16,16.1L74.9,72.1,77,74.2,94.7,56.5,76.5,38.3ZM108.1,0V20.2H0V0Zm-3,3H3V17.2H105.1ZM99,98.8v-3H93.7v3ZM65.7,78.5h-18V43.3l9-15.3,9,15.3ZM60,39.8H53.3l-2.1,3.5h11L60,39.6Zm-3.3-5.9L55,36.8h3.4Zm6,41.6V46.3h-12V68.7h9.8v3H50.7v3.8ZM49.9,81v3.1a3.8,3.8,0,0,0,4,3.6h5.6a3.8,3.8,0,0,0,4.1-3.6V81h-3v3.1c0,.2-.4.6-1.1.6-8,0-6.6.8-6.6-3.7Z" fill="#ffffff"/></svg>
