<svg xmlns="http://www.w3.org/2000/svg" viewBox="0 0 119.6 110.6"><path d="M115.8,93.9a9,9,0,0,1-9,9H18.3a9,9,0,0,1-9-9A8.9,8.9,0,0,1,17,85,15.2,15.2,0,0,1,36.7,68.4c.1-.8.2-1.7.4-2.6l2.9.6a25.7,25.7,0,0,0-.3,6.8c-2.5-1.3-4.4-2.5-7.8-2.5A12.1,12.1,0,0,0,19.8,82.8a15.9,15.9,0,0,0,1,5.1H18.3a6,6,0,0,0-6,6,6,6,0,0,0,6,6h88.5a6,6,0,0,0,6-6,6,6,0,0,0-6-6H103l.7-2c5.3-15.1-9-31.5-27-24.3-3-5.2-7-8.9-13.3-10.3l.6-3a23.1,23.1,0,0,1,14,9.6c17-5.7,33.5,9.8,29.1,27A9,9,0,0,1,115.8,93.9ZM28.6,58,0,29.3,29.3,0,58,28.6,42.6,44l9.3,9.2-2.1,2.2-9.3-9.3ZM4.2,29.3,28.6,53.7,53.7,28.6,29.3,4.2Zm49,7.3-2.1,2.1,3.3,3.4L50.6,46,81.5,76.9l.9,7.7-10-1.1V72.7H62.1V62.3H50.8l-8.1-8.1-4,4-3.5-3.6-2.1,2.1,5.6,5.7,4-4,6.9,6.9h9.5V75.7H69.5V86.2L85.9,88,84.3,75.5,54.8,46l3.9-3.9ZM26.6,15.7l-2.1,2.1,8.6,8.6-7.3,7.3-8.6-8.6-2.1,2.1L25.8,37.9,37.4,26.4Zm68-7.9c-1.2-.7-2.4-1.4-3.7-2L89.6,8.5l3.5,1.8Zm6.7,4.7A28.5,28.5,0,0,0,98,10l-1.7,2.4,3.1,2.4ZM79.2,1.9l-4-.7-.4,3,3.8.6Zm28,16.3-2.8-3-2.1,2.2a34.5,34.5,0,0,1,2.6,2.8ZM87.1,4.2a35.6,35.6,0,0,0-3.9-1.3l-.8,2.9A26.5,26.5,0,0,1,86.1,7ZM113,33.3l2.8-1.1c-.5-1.3-1.1-2.5-1.7-3.7l-2.7,1.3A35.2,35.2,0,0,1,113,33.3Zm3.5,15.1,3-.2c-.1-1.4-.2-2.7-.4-4.1l-3,.4C116.3,45.8,116.4,47.1,116.5,48.4Zm-4.4-23.5a40.5,40.5,0,0,0-2.3-3.4l-2.4,1.7,2.1,3.2ZM111,79.5l2.2-3.5-2.6-1.5c-.7,1.1-1.3,2.2-2.1,3.3ZM70.9,3.9l.2-3H66.9l.2,3A24.1,24.1,0,0,1,70.9,3.9Zm44.5,36.8,2.9-.6c-.3-1.4-.7-2.7-1.1-4l-2.8.9Zm1.2,11.6c-.1,1.3-.1,2.6-.3,3.8l3,.3c.2-1.3.2-2.7.3-4.1ZM63.2,4.2l-.4-3-4,.7.6,2.9ZM112.3,71l2.7,1.3c.6-1.3,1.1-2.5,1.6-3.8l-2.8-1A36.8,36.8,0,0,1,112.3,71ZM55.6,5.8l-.8-2.9L50.9,4.2,52,7ZM48.4,8.6,47.1,5.9c-1.2.6-2.5,1.2-3.6,1.9L45,10.4A36.5,36.5,0,0,1,48.4,8.6Zm66.5,55.2,2.9.7a25.9,25.9,0,0,0,.9-4l-2.9-.5A29.6,29.6,0,0,1,114.9,63.8ZM10.9,67H1.2V57.4h9.7Zm-3-6.6H4.2V64H7.9ZM58.6,89.9h4v-3h-4Zm-16,0h4v-3h-4Zm12,0v-3h-4v3ZM29.3,110.6H83.6v-3H29.3Zm60-.1h5.8v-3H89.3ZM85.8,24.1h-3v4.5h3Zm1.1,8.2h4.4v-3H86.9Zm-4.1,5.5h3V33.5h-3Zm-5.6-5.5h4.7v-3H77.2Z" fill="#636b6f"/></svg>