<svg xmlns="http://www.w3.org/2000/svg" viewBox="0 0 117.5 116.5"><path d="M37.5,11.4,36.2,8.7A30.8,30.8,0,0,1,40,7.1l1.1,2.8A27.5,27.5,0,0,0,37.5,11.4Zm11-3.8-.6-2.9-4,1,.9,2.9ZM34.1,13.2l-1.5-2.6a40.5,40.5,0,0,0-3.5,2.1l1.7,2.5ZM8.1,47.4l-2.9-.6c-.3,1.3-.5,2.7-.7,4.1l3,.4A26.3,26.3,0,0,1,8.1,47.4ZM9,35.1l2.8,1.3a37.8,37.8,0,0,1,1.7-3.5l-2.6-1.4C10.2,32.6,9.6,33.9,9,35.1ZM10.3,40,7.4,38.9c-.4,1.3-.9,2.6-1.2,3.9l2.8.8C9.4,42.4,9.8,41.2,10.3,40Zm57.9,69.1.7,3,4-1.1-.9-2.9Zm14.4-5.7,1.5,2.6,3.5-2.2-1.7-2.5Zm-7,3.4,1.1,2.8,3.8-1.7-1.3-2.7ZM106.8,76l2.8,1.1c.5-1.3.9-2.6,1.3-3.9l-2.9-.8Zm2.1-7.4,3,.6c.2-1.3.5-2.7.7-4.1l-3-.3C109.4,66,109.2,67.3,108.9,68.6Zm-5.4,14.5,2.6,1.4c.7-1.1,1.3-2.4,1.9-3.6l-2.7-1.3ZM112,62.7a5.3,5.3,0,0,1-5.1-3.7H86.5A28.1,28.1,0,0,1,60.4,85.9v19.8c6.4,1.4,5.3,10.8-1.2,10.8s-7.5-8.6-1.8-10.6v-20A27.9,27.9,0,0,1,30.6,59.4H10.8a5.5,5.5,0,0,1-9.2,2.7,5.5,5.5,0,0,1,0-7.7,5.4,5.4,0,0,1,9,2h20A28,28,0,0,1,57,30V10.8a5.5,5.5,0,1,1,5.1-1.5A5.7,5.7,0,0,1,60,10.6V30A28.2,28.2,0,0,1,86.5,56h20.2a5.5,5.5,0,1,1,5.3,6.7ZM60,7.2c2.3-2.3-1.2-5.8-3.5-3.5S57.7,9.5,60,7.2ZM3.7,56.5C1.4,58.8,4.9,62.3,7.2,60S6,54.2,3.7,56.5ZM45.6,79.4a25.1,25.1,0,0,0,24.9.5c0-3.7-1.8-7.5-5.3-9-2.7,5.2-10.3,5.2-13.4,0C48.4,72.2,46.1,75.2,45.6,79.4ZM56.8,111c0,3.2,4.9,3.2,4.9,0S56.8,107.8,56.8,111Zm1.7-78C35,33,24.5,62.7,42.9,77.5c1.3-5.8,5.6-9.8,11.5-10.2l.2,2.5c1.9,2.7,6.3,2.7,7.9-.2l.2-2.4c5.7.4,9.9,4.8,10.7,10.9C92.7,63.7,82.5,33,58.5,33ZM112,54.8a2.4,2.4,0,0,0-1.7,4.2,2.5,2.5,0,0,0,3.4,0A2.4,2.4,0,0,0,112,54.8ZM9,21A10.5,10.5,0,1,1,19.5,31.5,10.5,10.5,0,0,1,9,21Zm3,0a7.5,7.5,0,0,0,15,0,7.5,7.5,0,0,0-15,0Zm75.6-5.5A50.8,50.8,0,0,0,65.8,7l.4-3a54.4,54.4,0,0,1,23.3,9.2,10.5,10.5,0,0,1,14.6,15,51.5,51.5,0,0,1,8.3,21.6l-2.9.5A51.2,51.2,0,0,0,101.8,30C92.3,35.5,81.9,24.6,87.6,15.5ZM89,21a7.5,7.5,0,0,0,15,0,7.5,7.5,0,0,0-15,0ZM28.3,99.7A52,52,0,0,0,51.7,109l-.4,3a54.8,54.8,0,0,1-25-10.1A10.5,10.5,0,0,1,9,94a10.7,10.7,0,0,1,3.1-7.5A54.1,54.1,0,0,1,4.5,65.4l3-.4a50.6,50.6,0,0,0,7,19.7C24.1,79.5,34.2,90.6,28.3,99.7ZM27,94a7.5,7.5,0,0,0-15,0,7.5,7.5,0,0,0,15,0Zm80,0A10.5,10.5,0,1,1,96.5,83.5,10.5,10.5,0,0,1,107,94Zm-3,0a7.5,7.5,0,0,0-15,0,7.5,7.5,0,0,0,15,0ZM72.5,52.7V65.5H63l-.6.6a5.5,5.5,0,0,1-8.4,0l-.6-.6H44V52.7C44,45.8,49.2,39,58.8,39A13.7,13.7,0,0,1,72.5,52.7Zm-9-.1H52.9c0,7.8-.4,7.6,3.3,11.5s4.1-.1,5.6-1.7S63.5,56.5,63.5,52.6Zm6,.1c0-14.5-22.5-14-22.5,0v9.8h4c-1.4-2.9-1.1-4.6-1.1-12.9H66.5c0,8.2.3,9.8-1.2,12.9h4.2Z" fill="#ffffff"/></svg>
