<svg xmlns="http://www.w3.org/2000/svg" viewBox="0 0 104 117.9"><path d="M62.7,81.5a2.2,2.2,0,1,1,0,4.3A2.2,2.2,0,1,1,62.7,81.5ZM39.1,36.4a2.2,2.2,0,1,0,0-4.3C36.3,32.1,36.3,36.4,39.1,36.4ZM9.8,90.4l34.4,19.9,1.5-2.6L11.3,87.9ZM3.5,77.3h3V37.9h-3ZM45.9,10.1,44.4,7.5,11.2,26.7l1.5,2.5ZM93,27,59,7.4,57.5,10l34,19.6Zm4,51.6h3V38.3H97ZM57.1,108.2l1.5,2.6L93.4,90.7l-1.5-2.6ZM1.6,27.6a5.4,5.4,0,1,1,3.9,9.3A5.5,5.5,0,0,1,1.6,27.6Zm5.6,5.6c2.3-2.3-1.2-5.8-3.5-3.5S4.9,35.5,7.2,33.2ZM5.5,90.9a5.4,5.4,0,1,1,4-9.1l1.8-1.1h0l1.9-1.1,1.5,2.6-3.5,2h0l-.4.2A5.4,5.4,0,0,1,5.5,90.9Zm1.7-7.2c-2.3-2.3-5.8,1.2-3.5,3.5S9.5,86,7.2,83.7Zm48.1,32.6a5.5,5.5,0,0,1-7.7,0,5.4,5.4,0,0,1,2.2-9V85.9c-6.2-.2-15.4-4.3-21-11.7l-2.3,1.2h0l-1.5.9-1.5-2.6,3.5-2h.1c-8.5-14,.4-29.9,3.2-29.3a49.5,49.5,0,0,0,8.6,2.2A26.7,26.7,0,0,1,49.8,33.2V10.6a5.4,5.4,0,0,1-2.2-9,5.5,5.5,0,0,1,7.7,0,5.4,5.4,0,0,1-2.5,9.1V32.1a26.9,26.9,0,0,1,21,13l19.5-12a5.4,5.4,0,0,1,9-5.5c4.9,4.9-2,12.5-7.3,8L75.3,47.8c6.5,14.2-1.8,27.9-3.9,28.6h-1a50.3,50.3,0,0,0-8.6-2,26,26,0,0,1-9,9.6v23.2A5.4,5.4,0,0,1,55.3,116.3Zm44.9-83.1c2.3-2.3-1.2-5.8-3.5-3.5S97.9,35.5,100.2,33.2ZM31.8,73.3a38.6,38.6,0,0,1,6.5-1.6,31.8,31.8,0,0,1-2.7-10.6H26.5A23.1,23.1,0,0,0,31.8,73.3ZM70.7,45.8a65.8,65.8,0,0,1-7.2,1.7,30.8,30.8,0,0,1,2.1,10.6h9.1A23.4,23.4,0,0,0,70.7,45.8ZM60.4,47.9a86.6,86.6,0,0,1-19.7-.1,29.6,29.6,0,0,0-2.2,10.3H62.6A26.6,26.6,0,0,0,60.4,47.9ZM38.6,61.1a28.6,28.6,0,0,0,2.8,10.1,83.5,83.5,0,0,1,18.7,0,29.9,29.9,0,0,0,2.4-10.1ZM34.1,75.7a28.2,28.2,0,0,0,12.8,6.7,26.1,26.1,0,0,1-7.1-8A50.5,50.5,0,0,0,34.1,75.7ZM58.6,74a89.1,89.1,0,0,0-15.5,0A22.7,22.7,0,0,0,51,81.5,21.8,21.8,0,0,0,58.6,74Zm4.6-2.4a62.1,62.1,0,0,1,7.1,1.6,22.8,22.8,0,0,0,4.4-12.1H65.5A32.8,32.8,0,0,1,63.2,71.6ZM54.6,35.4a26.1,26.1,0,0,1,7.6,9.2,41.4,41.4,0,0,0,6.5-1.4A23.9,23.9,0,0,0,54.6,35.4ZM53.2,7.2A2.5,2.5,0,0,0,51.5,3a2.4,2.4,0,0,0-1.8.7C47.4,6,50.9,9.5,53.2,7.2ZM42.1,45A79.6,79.6,0,0,0,59,45a23.2,23.2,0,0,0-8.5-8.8A24.5,24.5,0,0,0,42.1,45Zm-4.5,2.4a62.9,62.9,0,0,1-7.1-1.7,23.8,23.8,0,0,0-4.1,12.4h9.1A31.3,31.3,0,0,1,37.6,47.4ZM51.5,110a2.5,2.5,0,0,0-1.8,4.2,2.6,2.6,0,0,0,3.5,0A2.5,2.5,0,0,0,51.5,110Zm50.8-28.4a5.4,5.4,0,1,1-7.7,0A5.5,5.5,0,0,1,102.3,81.6ZM98.5,83a2.5,2.5,0,0,0-1.8,4.2,2.6,2.6,0,0,0,3.5,0A2.5,2.5,0,0,0,98.5,83ZM18.1,80.3l3.5-2-1.5-2.6-3.5,2Z" fill="#ffffff"/></svg>
