<svg xmlns="http://www.w3.org/2000/svg" viewBox="0 0 96.2 103.9">
    <path d="M34,52.8a2.1,2.1,0,0,1,0-4.2C36.7,48.6,36.7,52.8,34,52.8Zm11.5-2A11.6,11.6,0,1,1,34,39.3,11.6,11.6,0,0,1,45.5,50.8Zm-3,0a8.6,8.6,0,0,0-17.1,0,8.6,8.6,0,1,0,17.1,0ZM87.3,11.4c0-2.7-4.2-2.7-4.2,0A2.1,2.1,0,0,0,87.3,11.4Zm-14.2.1A11.6,11.6,0,1,1,84.6,23.1,11.6,11.6,0,0,1,73.1,11.5Zm3,0A8.6,8.6,0,1,0,84.6,3,8.5,8.5,0,0,0,76.1,11.5Zm7,80.8c0,2.7,4.2,2.8,4.2,0A2.1,2.1,0,1,0,83.1,92.3Zm13.1.1A11.6,11.6,0,1,1,84.6,80.8,11.6,11.6,0,0,1,96.2,92.4Zm-3,0a8.6,8.6,0,1,0-17.1,0,8.5,8.5,0,0,0,8.5,8.5A8.6,8.6,0,0,0,93.2,92.4ZM18.1,24.2l-1.5-2.6L13.1,24l1.8,2.4A36.2,36.2,0,0,1,18.1,24.2ZM3,49.9H0a31,31,0,0,0,.2,4.3l2.9-.3C3,52.5,3,51.2,3,49.9ZM12,29,9.9,26.9a27.9,27.9,0,0,0-2.8,3.2l2.4,1.8A22.6,22.6,0,0,1,12,29ZM7.3,35.1,4.7,33.6a26.9,26.9,0,0,0-1.9,3.8l2.7,1.2A23.1,23.1,0,0,1,7.3,35.1ZM4.2,42.2l-2.9-.8a31.5,31.5,0,0,0-.9,4.2l3,.4C3.6,44.8,3.9,43.5,4.2,42.2ZM49.3,20.5l-3.9-1.7-1,2.9a21.7,21.7,0,0,1,3.5,1.5Zm-24.1.6-.8-2.9a27.4,27.4,0,0,0-4,1.5l1.2,2.7ZM3.8,57.6l-3,.7L2,62.4l2.9-1A23.8,23.8,0,0,1,3.8,57.6ZM56.3,25.3A41.9,41.9,0,0,0,53,22.7l-1.7,2.5,3.1,2.3Zm-15-7.6a30.7,30.7,0,0,0-4.2-.7l-.3,3a23.2,23.2,0,0,1,3.8.6Zm-8.4,2.2v-3a29.8,29.8,0,0,0-4.2.4l.4,3A25.8,25.8,0,0,1,32.9,19.9ZM63.2,68.1l-2.6-1.5a36.2,36.2,0,0,1-2.2,3.2l2.4,1.8A27.1,27.1,0,0,0,63.2,68.1ZM57.1,30.3a22.5,22.5,0,0,1,2.4,3L62,31.6a41.9,41.9,0,0,0-2.6-3.3Zm4.4,6.4A21.7,21.7,0,0,1,63,40.2l2.9-1c-.5-1.3-1.1-2.6-1.7-3.9Zm3.3,11.2,3-.3c-.2-1.4-.4-2.9-.7-4.3l-3,.7A30.8,30.8,0,0,1,64.8,47.9Zm1.8,12.4-2.9-.8c-.4,1.2-.8,2.4-1.3,3.6l2.7,1.2A32.5,32.5,0,0,0,66.6,60.3Zm1.3-8.4h-3a25.8,25.8,0,0,1-.4,3.9l3,.4A29.8,29.8,0,0,0,67.9,51.9ZM46.3,79.2,47.5,82a34.8,34.8,0,0,0,3.8-2l-1.6-2.5A35.9,35.9,0,0,1,46.3,79.2Zm-31.4-.3,3.7,2.2,1.3-2.7a29,29,0,0,1-3.3-2Zm-4.1-7.6-2.3,2q1.5,1.7,3,3l2-2.2A23.7,23.7,0,0,1,10.8,71.3ZM22.5,82.8A27.7,27.7,0,0,0,26.6,84l.6-3a25.4,25.4,0,0,1-3.7-1ZM3.7,66.3c.7,1.2,1.4,2.5,2.2,3.7l2.5-1.7a37.9,37.9,0,0,1-2-3.4ZM31.1,81.6l-.3,3a30.2,30.2,0,0,0,4.3.2v-3A25.5,25.5,0,0,1,31.1,81.6Zm7.7-.2.5,3,4.2-1-.9-2.9A23.4,23.4,0,0,1,38.8,81.4Zm33.4-62L47.6,35.9a20.2,20.2,0,0,1-.5,30.4L71.8,83.8,70,86.2,56.2,76.5l-1.4,1.1-1.9-2.3.8-.6-9.2-6.6A20.2,20.2,0,0,1,13.7,50.8c0-16.1,18-25.8,31.4-16.9l25.5-17ZM34,33.5A17.3,17.3,0,1,0,51.2,50.8,17.3,17.3,0,0,0,34,33.5Z" fill="#ffffff"/>
</svg>
