<svg xmlns="http://www.w3.org/2000/svg" viewBox="0 0 116.2 102.4"><path d="M88,42.4l-4.6,5.7H37.3V59.2h3V51.1H81l-2.7,3.3H44.2V65.6H23.7V48.2h-3V65.6H9a6,6,0,1,1,0-12h2.4a18.2,18.2,0,0,1-.9-5.1A12.2,12.2,0,0,1,28.2,37.7l2.2,1.2a26.2,26.2,0,0,0-.1-2.8c0-19.2,25.8-28,37.1-8.7C81,21.9,91.9,29.8,94.7,39.6l2.9-.8A22.6,22.6,0,0,0,68.7,23.7C56.9,5.9,29.2,13,27.4,34.2A15.1,15.1,0,0,0,7.7,50.7,9,9,0,0,0,9,68.6H20.7v19l-5.5-5.4-2.1,2.1,9.1,9,9.2-9.2L29.3,82l-5.6,5.6v-19H44.2V99.4H40.3V72.6h-3v29.8h78.9v-60Zm25.2,57h-66v-42H79.7l9.7-12h23.8ZM77.8,77.1h4v3h-4Zm-8,0h4v3h-4Zm16,0h4v3h-4ZM74.3,18.3,65,9.1,74.1,0l2.1,2.1L70.9,7.4h33.6v3H70.7l5.7,5.8Z" fill="#ffffff"/></svg>
