<svg xmlns="http://www.w3.org/2000/svg" viewBox="0 0 512 512">
	<style>
		path { fill: #636b6f; }
		@media (prefers-color-scheme): dark) { fill: #ececec; }
	</style>
	<path d="M175.4,122.7l-6.7-10.9c79.9-47.9,183.6-22,231.5,58a168.3,168.3,0,0,1,14.5,31l-12.1,4.1c-28-81.1-116.5-124.1-197.6-96.1A148,148,0,0,0,175.4,122.7Zm-66,187.1L97.7,314a167.9,167.9,0,0,0,241.8,87.7l-6.2-10.9a155.8,155.8,0,0,1-212.8-57.3A150.3,150.3,0,0,1,109.4,309.8Zm351.3-14.2a209.5,209.5,0,0,1-55.6,105.7h33.4v12.5H358.8V334h12.5v26.3A153.7,153.7,0,0,0,406,295.6H262.3v8.3H249.7v-8.3H63C90.2,428.4,239.3,491.9,353.3,426.3l6.3,10.9c-122,70.2-281.5,1.7-309.1-141.6H7.5V216.2h43a204.3,204.3,0,0,1,46.4-96H67.6V107.6H147v79.8H134.4V157.7a165.9,165.9,0,0,0-29.6,58.5H249.7V203.7h12.6v12.5H447.7C420.2,81.7,267.7,18.7,153.2,88.4L147,77.5C269.4,2.8,432.7,71.7,460.7,216.2h43.8v79.4ZM112.3,121.8A195.4,195.4,0,0,0,63,216.2H91.8a171.6,171.6,0,0,1,42.6-77.3V120.2H111.1ZM249.7,283.1V228.8H20v54.3Zm12.6,0H492V228.8H262.3Zm185.4,12.5H418.9a167,167,0,0,1-46.8,81.9l-.8-1.3v25.1H388A198.6,198.6,0,0,0,447.7,295.6ZM198.8,250.5V263h16.7V250.5ZM98.5,263h16.7V250.5H98.5Zm-33.4,0H81.8V250.5H65.1Zm100.3,0h16.7V250.5H165.4Zm-33.5,0h16.8V250.5H131.9Z"/></svg>