<svg xmlns="http://www.w3.org/2000/svg" viewBox="0 0 16 16"><path d="M5.4549,3.79l-.211-.3429a5.3279,5.3279,0,0,1,7.7672,2.8088l-.3825.1319A4.9053,4.9053,0,0,0,5.4549,3.79ZM3.3714,9.6981,3.0021,9.83a5.3014,5.3014,0,0,0,7.6353,2.7693l-.1978-.3429A4.9184,4.9184,0,0,1,3.3714,9.6981Zm11.09-.4483a6.6061,6.6061,0,0,1-1.7538,3.3363h1.0549v.3956H11.244V10.463H11.64v.8308A4.8127,4.8127,0,0,0,12.7341,9.25H8.1978v.2637H7.8022V9.25H1.9076a6.2073,6.2073,0,0,0,9.165,4.1275l.1978.3429A6.5938,6.5938,0,0,1,1.512,9.25H.1537V6.7443H1.512A6.4616,6.4616,0,0,1,2.9757,3.7112h-.923V3.3156H4.5582V5.8343H4.1626V4.8981a5.2067,5.2067,0,0,0-.9363,1.8462H7.8022V6.3486h.3956v.3957h5.855A6.2,6.2,0,0,0,4.756,2.709l-.1978-.3428a6.5983,6.5983,0,0,1,9.9034,4.3781h1.3847V9.25ZM3.4637,3.764a6.1446,6.1446,0,0,0-1.5561,2.98h.91a5.38,5.38,0,0,1,1.3451-2.44V3.7112H3.4241Zm4.3385,5.09V7.14H.5493V8.8542Zm.3956,0h7.2529V7.14H8.1978Zm5.855.3956h-.91a5.2616,5.2616,0,0,1-1.4769,2.5846l-.0264-.04v.7912h.5275A6.2633,6.2633,0,0,0,14.0528,9.25ZM6.1934,7.8256v.3956h.5275V7.8256Zm-3.1649.3956H3.556V7.8256H3.0285Zm-1.055,0H2.501V7.8256H1.9735Zm3.1649,0h.5275V7.8256H5.1384Zm-1.0549,0h.5274V7.8256H4.0835Z"/></svg>